<svg xmlns="http://www.w3.org/2000/svg" version="1.1" xmlns:xlink="http://www.w3.org/1999/xlink" width="1000" height="1000"><style>
    #light-icon {
      display: inline;
    }
    #dark-icon {
      display: none;
    }

    @media (prefers-color-scheme: dark) {
      #light-icon {
        display: none;
      }
      #dark-icon {
        display: inline;
      }
    }
  </style><g id="light-icon"><svg xmlns="http://www.w3.org/2000/svg" version="1.1" xmlns:xlink="http://www.w3.org/1999/xlink" width="1000" height="1000"><g clip-path="url(#SvgjsClipPath1393)"><rect width="1000" height="1000" fill="#ffffff"></rect><g transform="matrix(0.25655644241733183,0,0,0.25655644241733183,181.87001140250845,50)"><svg xmlns="http://www.w3.org/2000/svg" xml:space="preserve" width="2480" height="3508" fill-rule="evenodd" clip-rule="evenodd" image-rendering="optimizeQuality" shape-rendering="geometricPrecision" text-rendering="geometricPrecision" viewBox="0 0 2480 3507.4"><path fill="#2b2b24" d="M2171.9 2610.5c-15.8 1.1-47-5.6-69.3-5.5-71.1.3-141.5 8.6-220.2-1.2-.2-1.2-2-14.1-1.8-16.5 1.6-17.8-1-6.5 5.3-16.2-6.4 6 1.8-3-17.2.3-10.4 1.9-14.3 5.2-22.2 10.8l-6.5 25.8c-55-10.3-286-1.3-359-3.5-39.6-1.2-72.5 4.9-94.6-18l-70.6-79.8-2.6-2-13.6-7.5-2-1.5-6.6-16.5c-7.2-21.5-20.8-24.5-34.9-41.6-4.5-5.5-6-8-11.3-13.6l-227-239.5c-9.5-10.5-7-6-14.1-11.6l-8.6-7.6c-9.7-10.6-50-51.5-62.1-56.4-.8-.3-14-4-14.4-4 14.1-10.2 7.4-3.2 14-29.3l3.2-9.3 6.1-9c-24.2-.2-76.9 74-100.2 94l-11.4 9.3c-5.4 4.7-3.1 1.6-8.3 8.4l-8.2 12.8c-37.5 61.4-19.3 275.6-18.3 355.1 9.4-3.4 26.1 6.7 11.3-12.7.5 20.7 7.8 37.4-2.5 51.7-20 23.2-104.1 16.3-137.8 9.1-15.3-53-5.7-261.6-5.7-339.6 0-54.4-5.6-56.4 14.8-102 .1 1.8.4 9.3.8 10.7l5.2 13.3c22.9-1.1 12.2-3.3 25.2-13.3 10.2-7.9 11-8 20.2-17.4l281-285.9c15-12.6 22.2-20.8 35.6-35l211.7-213.5c13-12 24.1-25.6 36.4-38.6 73.7-78.3 516-503.9 526.4-533.9-4.2 5.7 3 2.4-14.2 9.7-17.7 7.4-34.6 9.3-53.3 20.8-18.4 11.4-37.1 31.4-51 48.9-10.7 13.6-100.6 93.9-126.5 123.3l-51.1 49c-71 77.5-150.2 151.8-225 224.9-74 72.1-248 260.4-299 300.8 4.6-13 11-16 19.2-26.3 27-33.4 16.3-44.2 12.8-77.6-1.3-12.6-11.7-18.4-20.7-27.3-11.5-11.3-.5 1.4-10.3-10.3l-1.8-2.4-1.7-2.3c-17.6-23.2-7.3-22.8-23-24.7-16.6-2-13.9 7.9-14 23.5l-10.8-11.2-.4-2.7-.5-2.8-13-22.7c17.7-17 8.9-24.1 21.8-38.6l56.8-55.8c16.4-16.5 29.2-29.9 45.7-45.9 119.5-115.7 245.6-255.4 364.7-368.7 53-50.3 49.5-75 113-74.5 64.7.6 211.7 9.2 259-11.3-80-1.8-162.1-1.5-242.3-1-57.3.4-63.4-7.3-98.7 22-33.4 27.8-57.5 65.2-89.7 93.6l-89.2 90c-71.7 69.7-139.1 145.5-213.1 212l-88.4 90.7c-48.7 50.3-208.7 216-241.2 242.5-13 10.6-20.9 9.5-28.4 28.1-6.8 17-11.8 28-18 41.9-50-15.5-22.5-132.9-42.3-206.3-5.5-20.2-13-42.9-13.1-67.5l-12.5 16.8c0-13.8-1.6-46.6-24-42.6-5 .9-13.3-11.8-5 8.8-.4-.9-1.2-2-1.5-2.5l-1.6-2.5c-7.9-11.7-19.3-17.3-22-28.2-8.4 7.4-12.5 17.6-8.1 24.8-2.4-26-4.5-11.9-.2-41.5-10.2 3.5-23.6-5.2-12.4 16.7-3.7-7.2-7.7-16.5-16.2-18.4-.6-.1-3.1.8-4.5.7-.6-33.4-9.6-24.6-4.2-61.5q-2.4.8-4.4 1.7l-4 1.5-3.8 1.3-22.5 9.2c-5.8 7 .3 3.7-2.6 6.9l-4.3-45.8c-11.4.7-.1-3.4-7.7 4.8-8.7 9.5 2.8 0-7.2 16.1 11.5-19.6-3.7-12-7-23.4-.2-1-1.5-21-3-32.2a77 77 0 0 0-13.6-38.9c-17.2-25.2-6.8-143.9-7.3-181.5-.6-44.8-1-111.7-4.4-158.7-7.6-106.5 11.6-136-30.6-131.3 1.3 9 .5 21.6 0 31.8-.9 16.9-10.3 39.7-18.5 58.2-6.5 14.6-13.4 6.4-16.1 20.9-7 37.2-14.4 89.6-14.9 125.6l-6.2 124.4c-1.3 20-1.7 36.1-2.1 53-.4 17.8 4.9 37.4 6.2 55.5 5 66.4-7.2 137.6-1.7 193.2 3.7 37.8 1.5 86-3 123-4 34 6.6 25.8 3.8 53.2-3.4 33.8 1.8 139.7-6 165.5l-2.5 20.3c.4 3.5 1.8 10 2 14.3l-1.4 10.1-.2 1.9.1 1.7c3.8 15.8 1.7-4.2 9 12.6-15.1 29-3.7 17.5-4.2 50-.5 32.8 4 80.3 1 109.3-1.8 17-2 41.5-2.4 58-.2 11.5 4.8 41.1 4.8 53.5l-5.2 81.8c-4 34.3.7 23.2-.3 45.9-.7 15-3.4 6 .8 23.6v21c-5.4 30.5 10.3 62.8.7 90.3-.3 1-1 2-1.2 2.9l-1.1 2.6-1 2.4 1.2 68.8c-1.9 19.2 6 31.8 6.7 52.6 1.3 35.7-23.2 69.2-.7 100.6 1.8 2.6 5.3 5.8 7.9 8.7 13.9 15.2 3 15.3 18.4 23.3 20.1 10.4 54.4 3.9 76.2 7 24.6 3.5 48.6.2 73.5 1.3l69.7-2.4c25.4-.4 88.5 3.1 107.7-2.5 15.7-4.5 40.4-.2 54-1 11.7-.7 25.2-.9 34.6-6.5l2.4-1.8 8.3-8.2c10.4-9.2 33-14.5 44.3-18.9 11-4.3 13-12 21.3-19.9 8.9-8.5 11.5-6.8 15.4-21.5-17.3-15.4-35-6.6-54-16.2l53.8-1c7-53.6 4.9-117.6 5.4-174.5l12.2-166.4c45.6-.6 82.2 45.9 107.6 79.1 26 33.9 26.9 27.8 38.3 41.4l1.1 1.7 9.6 11.9c15.6 16.9 22.6 41.7 39.5 56.7l48.2 47.6 2 2.2 14.6 18.7c24.8 23.3 45.8 58 76 78.3 20.9 14 16.4 15.6 28.7 33.5l18.8 14.8c32 28.3 53.7 45.4 100.5 41.4 18.2-1.6 36.5-1.8 55.2-2.7l166.3 3.1c89-7.7 189.7-6.2 264.6-3 13.9.5 16-2.6 27.7-2 35.1 1.4 45.2 9.5 47.9 10 .9.2 170.6 2.1 231.6-42l4.8-3.5c1.8-1.3 6.6-5 9.7-7 22.1-13.1 33.7-14.7 39-45.5z"></path><path fill="#93938c" d="M395.8 871.9c42.2-4.7 23 24.8 30.6 131.3 3.4 47 3.8 113.9 4.4 158.7.5 37.6-9.9 156.3 7.3 181.5a77 77 0 0 1 13.7 38.9c1.4 11.3 2.7 31.3 3 32.2 3.2 11.4 18.4 3.8 7 23.4 10-16-1.6-6.6 7-16 7.7-8.3-3.6-4.2 7.8-4.9l4.3 45.8c2.9-3.2-3.2.2 2.6-6.8l22.5-9.3 3.7-1.3 4.1-1.5q2-1 4.4-1.7c-5.4 36.9 3.6 28.1 4.2 61.5 1.4 0 4-.8 4.5-.7 8.5 2 12.5 11.2 16.2 18.4-11.2-22 2.2-13.2 12.4-16.7-4.3 29.7-2.2 15.4.2 41.5-4.4-7.2-.3-17.4 8-24.8 2.8 10.9 14.2 16.5 22.1 28.2l1.6 2.5 1.6 2.5c-8.4-20.6 0-8 5-8.8 22.3-4 23.8 28.8 24 42.6l12.4-16.8c.2 24.6 7.6 47.3 13 67.6 19.9 73.4-7.6 190.7 42.4 206.2 6.2-14 11.2-24.8 18-41.9 7.5-18.6 15.5-17.5 28.4-28.1 32.5-26.6 192.5-192.2 241.2-242.5l88.4-90.8c74-66.4 141.4-142.2 213.1-211.9l89.2-90c32.2-28.4 56.3-65.8 89.7-93.6 35.3-29.3 41.4-21.6 98.7-22 80.2-.5 162.2-.8 242.3 1-47.3 20.5-194.3 11.9-259 11.3-63.5-.5-60 24.2-113 74.6-119 113.2-245.2 253-364.7 368.6-16.5 16-29.3 29.5-45.7 46l-56.8 55.7c-13 14.5-4 21.6-21.9 38.6l13.1 22.7.5 2.8.4 2.7 10.8 11.3c.1-15.7-2.6-25.6 14-23.6 15.7 1.9 5.4 1.5 23 24.7l1.7 2.4q1 1 1.8 2.3c9.8 11.7-1.2-1 10.3 10.3 9 8.9 19.4 14.7 20.7 27.3 3.5 33.5 14.2 44.2-12.8 77.6-8.3 10.3-14.6 13.3-19.2 26.3 51-40.4 225-228.7 299-300.8 74.8-73 154-147.4 225-225l51.1-48.9c25.9-29.4 115.8-109.7 126.6-123.3 13.8-17.5 32.5-37.5 50.9-48.9 18.7-11.5 35.6-13.4 53.3-20.8 17.2-7.3 10-4 14.2-9.7-10.4 30-452.7 455.6-526.4 533.9-12.3 13-23.4 26.5-36.4 38.6l-211.7 213.4c-13.4 14.3-20.7 22.5-35.5 35.1l-281 286c-9.2 9.3-10 9.4-20.3 17.3-13 10-2.3 12.2-25.2 13.3l-5.2-13.3c-.4-1.4-.7-9-.8-10.8-20.4 45.7-14.8 47.7-14.8 102.1 0 78-9.6 286.6 5.7 339.6 33.7 7.2 117.8 14 137.8-9.1 10.3-14.3 3-31 2.5-51.7 14.8 19.4-1.9 9.3-11.3 12.7-1-79.5-19.2-293.7 18.4-355l8-13c5.3-6.7 3-3.6 8.5-8.3l11.3-9.3c23.4-20 76-94.2 100.2-94l-6 9v33.3c50 33.6 87.2 90.1 130.1 132.3l256.3 273c90.4 90 56 82.1 155.2 83l17-1.4c17.9-6.7 3.4 4.3 16.3-11.8-73.6 0-80.5 10.5-107.6-21.9l-91.8-98.8a816 816 0 0 0-92.9-99.7l-17.2-16.5c-3-2.7-5.3-4.7-7.9-7.8l-79.4-87.6c-37.4-42.3-77-75.6-111.9-121.6-8.3-11-7.4-7.6-15.8-17.6-10.6-12.7-22.5-20.7-30-35 13.8 9.6 6 9.2 23.8 15.3-1.8-23.8-1.1-40.3 8.6-57.5 9.6-17 7-33.6 16.3-44.6l94.7-105.5c23.3-21 27.4-35 55.6-52.7 19.2-12 20-36.5 46.2-22.1l13.5 6.8c1-1.2 2-4.7 2.5-4l13.8-35.5c4-9 13.2-13.5 20.4-19.4l5-4.2c-3.8-36.5 7-24.4 26.5-52 15-21.1 101.4-100 131.2-135.6 33.8-40.3 100-102.4 127.7-134.9 19.7-23.1 36.9-31.9 57.8-50.5 50.8-45.2 98.2-97 145.7-145.9l44-43.6c36.7-36.5 66.4-81.1 103.6-117.2 8-7.8 16-13.3 23.8-22.2 7.2-8.2 10-17.8 19-22.6-18.9-10-26.4-14.2-50-18-24.7-4-55.7-4-78.5-14.8l-15.8-8c-33.2-7.8-314.3-8.8-341.2-4.1-18.3 3.2-39.2 14.3-48 28.2-15.6-4.1-11.2-7.5-25-8.3-9 17.1-84 84.3-105.2 103.3l-250.5 249.5c-61.3 69.7-134.6 125.5-197.3 194.3-13.5 14.8-8.3 12.3-30.4 15.4 0-59.4 6.4-434-3-474.4-2.3-9.6-4.3-20-8.5-27.9-5.2-9.4-12-11-20.6-19.8-23.6-23.9 3-6.6-36-25.1l-15.2-7c0 7.6-1 21-1.5 24-3 15.1-3.6 16.7-15.2 26 0-31 6.4-83.1-3-111.7-10.1-31.5-11 7.7-12.4-33 21.8-3.6 126.7-17.5 144.4 8.4 11.8 17.3 5.6 326.2 15 391 4.7 31.5.5 63.9 8 91.7 3.5 12.9 6.3 5.3 6.3 28.7 12.7 8.4 14.9 2.8 20.2 20.6-10.4 8-22.1 27.5-36.3 30l-8.8 12c45.4-67.9 299.7-289.3 331-331.8 21.2-28.6 55-48.5 71.8-69.8 49-62.8 116-105.5 170.2-163 26.6-28.4 16.5-27.7 68.7-27.3 81.2.7 223.8 6.5 290.4 3-1.2-.6-3-2.4-3.7-1.3l-15.7-2.9c-60.3-4.7-286.1 5-314.2-9.2l-16.5-10.4c39.3-18.6 733.8 8.7 776.8-20.7-144.3-7.2-300.5-.6-446.3-1l-220.8-.2c-29.3 0-109.5-6.5-131.6 7.1l-493.3 477.3c-18.9-4-12.8-91.1-12.8-108.3.2-41.6-1.3-83.4-.5-125 .8-49.5 5.8-205.4-4.4-241.3-32.5-17-368.7-9-457.1-7-22.3.5-18.5-2.9-23.7 12.4"></path><path fill="#4f504a" d="M1759.6 902.3c-66.6 3.6-209.1-2.2-290.4-2.9-52.2-.4-42-1-68.7 27.2-54.1 57.6-121.2 100.3-170.2 163-16.7 21.4-50.6 41.3-71.7 70-31.4 42.4-285.7 263.8-331.1 331.6l8.8-11.8c14.2-2.6 25.9-22.2 36.3-30.1-5.3-17.8-7.5-12.2-20.2-20.6 0-23.3-2.8-15.8-6.3-28.7-7.5-27.8-3.3-60.1-8-91.7-9.4-64.8-3.2-373.7-15-391-17.7-25.9-122.6-12-144.4-8.3 1.4 40.6 2.3 1.4 12.5 32.9 9.3 28.6 3 80.8 3 111.7 11.5-9.3 12.2-10.9 15-26 .6-3 1.6-16.4 1.6-24l15.3 7c38.9 18.5 12.3 1.2 35.9 25.1 8.7 8.8 15.4 10.4 20.6 19.9 4.2 7.7 6.2 18.2 8.4 27.8 9.5 40.5 3.1 415 3.1 474.4 22-3 16.9-.6 30.4-15.4 62.7-68.8 136-124.6 197.3-194.3l250.5-249.4c21.2-19 96.1-86.2 105.2-103.4 13.8.8 9.4 4.2 25 8.3 8.8-13.8 29.7-25 48-28.2 27-4.7 308-3.7 341.2 4.2l15.8 7.9c22.8 10.8 53.8 10.9 78.5 14.8 23.6 3.8 31.1 8 50 18-9 4.8-11.8 14.4-19 22.6-7.9 9-15.8 14.4-23.8 22.2-37.2 36-66.9 80.7-103.6 117.2l-44 43.6c-47.5 48.8-95 100.7-145.7 146-21 18.6-38.1 27.3-57.8 50.4-27.7 32.5-94 94.6-127.7 134.9-29.8 35.6-116.3 114.5-131.2 135.6-19.4 27.6-30.3 15.5-26.5 52l-5 4.2c-7.2 5.9-16.3 10.4-20.4 19.4l-13.8 35.5c-.5-.7-1.5 2.8-2.5 4l-13.5-6.8c-26.2-14.3-27 10.1-46.2 22.1-28.2 17.8-32.3 31.6-55.6 52.7l-94.7 105.5c-9.3 11-6.7 27.6-16.3 44.6-9.7 17.2-10.4 33.7-8.6 57.5-17.9-6.1-10-5.7-23.8-15.2 7.5 14.2 19.4 22.2 30 34.9 8.4 10 7.5 6.6 15.8 17.6 34.9 46 74.5 79.3 111.9 121.6l79.4 87.6c2.6 3 4.9 5 8 7.8l17.1 16.5a816 816 0 0 1 92.9 99.7l91.8 98.8c27 32.4 34 21.9 107.6 21.9-13 16 1.6 5.1-16.3 11.8l-17 1.3c-99.2-.8-64.8 7.1-155.2-83L1066 2232c-42.9-42.2-80-98.7-130.2-132.3v-33.3l-3.3 9.3c-6.5 26 .2 19.1-13.9 29.3.4 0 13.6 3.7 14.4 4 12 5 52.4 45.8 62.2 56.4l8.5 7.6c7 5.5 4.6 1.1 14.1 11.6l227 239.5c5.3 5.6 6.8 8.1 11.3 13.6 14.1 17.1 27.7 20.1 34.9 41.6l6.6 16.5 2 1.5 13.6 7.5 2.6 2 70.6 79.8c22.1 22.9 55 16.8 94.5 18 73.1 2.2 304-6.8 359.1 3.5l6.5-25.7c7.9-5.7 11.8-9 22.2-10.9 19-3.3 10.8 5.6 17.2-.3-6.4 9.7-3.7-1.6-5.3 16.2-.2 2.4 1.6 15.3 1.8 16.5 78.7 9.8 149 1.5 220.2 1.2 22.3 0 53.5 6.7 69.2 5.5-7-9-32.1-25.6-56.2-53.5l-157.1-167.4a14534 14534 0 0 1-211.4-222.2L1340 1736.7c-7.2-11.8-6.7-11.2-1.8-22.6.8-.2 2.2-.8 2.5.1l9 1.4c12.9 2.3 4.6 3.3 22.6 3.5 13.6-20 364.3-372.6 414.1-423.3l366-367.4c16.8-17.2 44-38.4 52.7-60.3-64 13.4-87.5 51-142.2 104.1l-120.3 121.4c-39.3 41.8-79.8 80.3-120.6 121l-91.3 92.2c-11.9 12.2-17.3 24.7-37.5 27.2-5.7-26.7-10.3-20.2 32.3-61.7l249.7-254.4c27.8-30 101.1-86.5 90-109.3z"></path></svg></g></g><defs><clipPath id="SvgjsClipPath1393"><rect width="1000" height="1000" x="0" y="0" rx="150" ry="150"></rect></clipPath></defs></svg></g><g id="dark-icon"><svg xmlns="http://www.w3.org/2000/svg" version="1.1" xmlns:xlink="http://www.w3.org/1999/xlink" width="1000" height="1000"><g clip-path="url(#SvgjsClipPath1394)"><rect width="1000" height="1000" fill="#ffffff"></rect><g transform="matrix(0.25655644241733183,0,0,0.25655644241733183,181.87001140250845,50)"><svg xmlns="http://www.w3.org/2000/svg" xml:space="preserve" width="2480" height="3508" fill-rule="evenodd" clip-rule="evenodd" image-rendering="optimizeQuality" shape-rendering="geometricPrecision" text-rendering="geometricPrecision" viewBox="0 0 2480 3507.4"><path fill="#2b2b24" d="M2171.9 2610.5c-15.8 1.1-47-5.6-69.3-5.5-71.1.3-141.5 8.6-220.2-1.2-.2-1.2-2-14.1-1.8-16.5 1.6-17.8-1-6.5 5.3-16.2-6.4 6 1.8-3-17.2.3-10.4 1.9-14.3 5.2-22.2 10.8l-6.5 25.8c-55-10.3-286-1.3-359-3.5-39.6-1.2-72.5 4.9-94.6-18l-70.6-79.8-2.6-2-13.6-7.5-2-1.5-6.6-16.5c-7.2-21.5-20.8-24.5-34.9-41.6-4.5-5.5-6-8-11.3-13.6l-227-239.5c-9.5-10.5-7-6-14.1-11.6l-8.6-7.6c-9.7-10.6-50-51.5-62.1-56.4-.8-.3-14-4-14.4-4 14.1-10.2 7.4-3.2 14-29.3l3.2-9.3 6.1-9c-24.2-.2-76.9 74-100.2 94l-11.4 9.3c-5.4 4.7-3.1 1.6-8.3 8.4l-8.2 12.8c-37.5 61.4-19.3 275.6-18.3 355.1 9.4-3.4 26.1 6.7 11.3-12.7.5 20.7 7.8 37.4-2.5 51.7-20 23.2-104.1 16.3-137.8 9.1-15.3-53-5.7-261.6-5.7-339.6 0-54.4-5.6-56.4 14.8-102 .1 1.8.4 9.3.8 10.7l5.2 13.3c22.9-1.1 12.2-3.3 25.2-13.3 10.2-7.9 11-8 20.2-17.4l281-285.9c15-12.6 22.2-20.8 35.6-35l211.7-213.5c13-12 24.1-25.6 36.4-38.6 73.7-78.3 516-503.9 526.4-533.9-4.2 5.7 3 2.4-14.2 9.7-17.7 7.4-34.6 9.3-53.3 20.8-18.4 11.4-37.1 31.4-51 48.9-10.7 13.6-100.6 93.9-126.5 123.3l-51.1 49c-71 77.5-150.2 151.8-225 224.9-74 72.1-248 260.4-299 300.8 4.6-13 11-16 19.2-26.3 27-33.4 16.3-44.2 12.8-77.6-1.3-12.6-11.7-18.4-20.7-27.3-11.5-11.3-.5 1.4-10.3-10.3l-1.8-2.4-1.7-2.3c-17.6-23.2-7.3-22.8-23-24.7-16.6-2-13.9 7.9-14 23.5l-10.8-11.2-.4-2.7-.5-2.8-13-22.7c17.7-17 8.9-24.1 21.8-38.6l56.8-55.8c16.4-16.5 29.2-29.9 45.7-45.9 119.5-115.7 245.6-255.4 364.7-368.7 53-50.3 49.5-75 113-74.5 64.7.6 211.7 9.2 259-11.3-80-1.8-162.1-1.5-242.3-1-57.3.4-63.4-7.3-98.7 22-33.4 27.8-57.5 65.2-89.7 93.6l-89.2 90c-71.7 69.7-139.1 145.5-213.1 212l-88.4 90.7c-48.7 50.3-208.7 216-241.2 242.5-13 10.6-20.9 9.5-28.4 28.1-6.8 17-11.8 28-18 41.9-50-15.5-22.5-132.9-42.3-206.3-5.5-20.2-13-42.9-13.1-67.5l-12.5 16.8c0-13.8-1.6-46.6-24-42.6-5 .9-13.3-11.8-5 8.8-.4-.9-1.2-2-1.5-2.5l-1.6-2.5c-7.9-11.7-19.3-17.3-22-28.2-8.4 7.4-12.5 17.6-8.1 24.8-2.4-26-4.5-11.9-.2-41.5-10.2 3.5-23.6-5.2-12.4 16.7-3.7-7.2-7.7-16.5-16.2-18.4-.6-.1-3.1.8-4.5.7-.6-33.4-9.6-24.6-4.2-61.5q-2.4.8-4.4 1.7l-4 1.5-3.8 1.3-22.5 9.2c-5.8 7 .3 3.7-2.6 6.9l-4.3-45.8c-11.4.7-.1-3.4-7.7 4.8-8.7 9.5 2.8 0-7.2 16.1 11.5-19.6-3.7-12-7-23.4-.2-1-1.5-21-3-32.2a77 77 0 0 0-13.6-38.9c-17.2-25.2-6.8-143.9-7.3-181.5-.6-44.8-1-111.7-4.4-158.7-7.6-106.5 11.6-136-30.6-131.3 1.3 9 .5 21.6 0 31.8-.9 16.9-10.3 39.7-18.5 58.2-6.5 14.6-13.4 6.4-16.1 20.9-7 37.2-14.4 89.6-14.9 125.6l-6.2 124.4c-1.3 20-1.7 36.1-2.1 53-.4 17.8 4.9 37.4 6.2 55.5 5 66.4-7.2 137.6-1.7 193.2 3.7 37.8 1.5 86-3 123-4 34 6.6 25.8 3.8 53.2-3.4 33.8 1.8 139.7-6 165.5l-2.5 20.3c.4 3.5 1.8 10 2 14.3l-1.4 10.1-.2 1.9.1 1.7c3.8 15.8 1.7-4.2 9 12.6-15.1 29-3.7 17.5-4.2 50-.5 32.8 4 80.3 1 109.3-1.8 17-2 41.5-2.4 58-.2 11.5 4.8 41.1 4.8 53.5l-5.2 81.8c-4 34.3.7 23.2-.3 45.9-.7 15-3.4 6 .8 23.6v21c-5.4 30.5 10.3 62.8.7 90.3-.3 1-1 2-1.2 2.9l-1.1 2.6-1 2.4 1.2 68.8c-1.9 19.2 6 31.8 6.7 52.6 1.3 35.7-23.2 69.2-.7 100.6 1.8 2.6 5.3 5.8 7.9 8.7 13.9 15.2 3 15.3 18.4 23.3 20.1 10.4 54.4 3.9 76.2 7 24.6 3.5 48.6.2 73.5 1.3l69.7-2.4c25.4-.4 88.5 3.1 107.7-2.5 15.7-4.5 40.4-.2 54-1 11.7-.7 25.2-.9 34.6-6.5l2.4-1.8 8.3-8.2c10.4-9.2 33-14.5 44.3-18.9 11-4.3 13-12 21.3-19.9 8.9-8.5 11.5-6.8 15.4-21.5-17.3-15.4-35-6.6-54-16.2l53.8-1c7-53.6 4.9-117.6 5.4-174.5l12.2-166.4c45.6-.6 82.2 45.9 107.6 79.1 26 33.9 26.9 27.8 38.3 41.4l1.1 1.7 9.6 11.9c15.6 16.9 22.6 41.7 39.5 56.7l48.2 47.6 2 2.2 14.6 18.7c24.8 23.3 45.8 58 76 78.3 20.9 14 16.4 15.6 28.7 33.5l18.8 14.8c32 28.3 53.7 45.4 100.5 41.4 18.2-1.6 36.5-1.8 55.2-2.7l166.3 3.1c89-7.7 189.7-6.2 264.6-3 13.9.5 16-2.6 27.7-2 35.1 1.4 45.2 9.5 47.9 10 .9.2 170.6 2.1 231.6-42l4.8-3.5c1.8-1.3 6.6-5 9.7-7 22.1-13.1 33.7-14.7 39-45.5z"></path><path fill="#93938c" d="M395.8 871.9c42.2-4.7 23 24.8 30.6 131.3 3.4 47 3.8 113.9 4.4 158.7.5 37.6-9.9 156.3 7.3 181.5a77 77 0 0 1 13.7 38.9c1.4 11.3 2.7 31.3 3 32.2 3.2 11.4 18.4 3.8 7 23.4 10-16-1.6-6.6 7-16 7.7-8.3-3.6-4.2 7.8-4.9l4.3 45.8c2.9-3.2-3.2.2 2.6-6.8l22.5-9.3 3.7-1.3 4.1-1.5q2-1 4.4-1.7c-5.4 36.9 3.6 28.1 4.2 61.5 1.4 0 4-.8 4.5-.7 8.5 2 12.5 11.2 16.2 18.4-11.2-22 2.2-13.2 12.4-16.7-4.3 29.7-2.2 15.4.2 41.5-4.4-7.2-.3-17.4 8-24.8 2.8 10.9 14.2 16.5 22.1 28.2l1.6 2.5 1.6 2.5c-8.4-20.6 0-8 5-8.8 22.3-4 23.8 28.8 24 42.6l12.4-16.8c.2 24.6 7.6 47.3 13 67.6 19.9 73.4-7.6 190.7 42.4 206.2 6.2-14 11.2-24.8 18-41.9 7.5-18.6 15.5-17.5 28.4-28.1 32.5-26.6 192.5-192.2 241.2-242.5l88.4-90.8c74-66.4 141.4-142.2 213.1-211.9l89.2-90c32.2-28.4 56.3-65.8 89.7-93.6 35.3-29.3 41.4-21.6 98.7-22 80.2-.5 162.2-.8 242.3 1-47.3 20.5-194.3 11.9-259 11.3-63.5-.5-60 24.2-113 74.6-119 113.2-245.2 253-364.7 368.6-16.5 16-29.3 29.5-45.7 46l-56.8 55.7c-13 14.5-4 21.6-21.9 38.6l13.1 22.7.5 2.8.4 2.7 10.8 11.3c.1-15.7-2.6-25.6 14-23.6 15.7 1.9 5.4 1.5 23 24.7l1.7 2.4q1 1 1.8 2.3c9.8 11.7-1.2-1 10.3 10.3 9 8.9 19.4 14.7 20.7 27.3 3.5 33.5 14.2 44.2-12.8 77.6-8.3 10.3-14.6 13.3-19.2 26.3 51-40.4 225-228.7 299-300.8 74.8-73 154-147.4 225-225l51.1-48.9c25.9-29.4 115.8-109.7 126.6-123.3 13.8-17.5 32.5-37.5 50.9-48.9 18.7-11.5 35.6-13.4 53.3-20.8 17.2-7.3 10-4 14.2-9.7-10.4 30-452.7 455.6-526.4 533.9-12.3 13-23.4 26.5-36.4 38.6l-211.7 213.4c-13.4 14.3-20.7 22.5-35.5 35.1l-281 286c-9.2 9.3-10 9.4-20.3 17.3-13 10-2.3 12.2-25.2 13.3l-5.2-13.3c-.4-1.4-.7-9-.8-10.8-20.4 45.7-14.8 47.7-14.8 102.1 0 78-9.6 286.6 5.7 339.6 33.7 7.2 117.8 14 137.8-9.1 10.3-14.3 3-31 2.5-51.7 14.8 19.4-1.9 9.3-11.3 12.7-1-79.5-19.2-293.7 18.4-355l8-13c5.3-6.7 3-3.6 8.5-8.3l11.3-9.3c23.4-20 76-94.2 100.2-94l-6 9v33.3c50 33.6 87.2 90.1 130.1 132.3l256.3 273c90.4 90 56 82.1 155.2 83l17-1.4c17.9-6.7 3.4 4.3 16.3-11.8-73.6 0-80.5 10.5-107.6-21.9l-91.8-98.8a816 816 0 0 0-92.9-99.7l-17.2-16.5c-3-2.7-5.3-4.7-7.9-7.8l-79.4-87.6c-37.4-42.3-77-75.6-111.9-121.6-8.3-11-7.4-7.6-15.8-17.6-10.6-12.7-22.5-20.7-30-35 13.8 9.6 6 9.2 23.8 15.3-1.8-23.8-1.1-40.3 8.6-57.5 9.6-17 7-33.6 16.3-44.6l94.7-105.5c23.3-21 27.4-35 55.6-52.7 19.2-12 20-36.5 46.2-22.1l13.5 6.8c1-1.2 2-4.7 2.5-4l13.8-35.5c4-9 13.2-13.5 20.4-19.4l5-4.2c-3.8-36.5 7-24.4 26.5-52 15-21.1 101.4-100 131.2-135.6 33.8-40.3 100-102.4 127.7-134.9 19.7-23.1 36.9-31.9 57.8-50.5 50.8-45.2 98.2-97 145.7-145.9l44-43.6c36.7-36.5 66.4-81.1 103.6-117.2 8-7.8 16-13.3 23.8-22.2 7.2-8.2 10-17.8 19-22.6-18.9-10-26.4-14.2-50-18-24.7-4-55.7-4-78.5-14.8l-15.8-8c-33.2-7.8-314.3-8.8-341.2-4.1-18.3 3.2-39.2 14.3-48 28.2-15.6-4.1-11.2-7.5-25-8.3-9 17.1-84 84.3-105.2 103.3l-250.5 249.5c-61.3 69.7-134.6 125.5-197.3 194.3-13.5 14.8-8.3 12.3-30.4 15.4 0-59.4 6.4-434-3-474.4-2.3-9.6-4.3-20-8.5-27.9-5.2-9.4-12-11-20.6-19.8-23.6-23.9 3-6.6-36-25.1l-15.2-7c0 7.6-1 21-1.5 24-3 15.1-3.6 16.7-15.2 26 0-31 6.4-83.1-3-111.7-10.1-31.5-11 7.7-12.4-33 21.8-3.6 126.7-17.5 144.4 8.4 11.8 17.3 5.6 326.2 15 391 4.7 31.5.5 63.9 8 91.7 3.5 12.9 6.3 5.3 6.3 28.7 12.7 8.4 14.9 2.8 20.2 20.6-10.4 8-22.1 27.5-36.3 30l-8.8 12c45.4-67.9 299.7-289.3 331-331.8 21.2-28.6 55-48.5 71.8-69.8 49-62.8 116-105.5 170.2-163 26.6-28.4 16.5-27.7 68.7-27.3 81.2.7 223.8 6.5 290.4 3-1.2-.6-3-2.4-3.7-1.3l-15.7-2.9c-60.3-4.7-286.1 5-314.2-9.2l-16.5-10.4c39.3-18.6 733.8 8.7 776.8-20.7-144.3-7.2-300.5-.6-446.3-1l-220.8-.2c-29.3 0-109.5-6.5-131.6 7.1l-493.3 477.3c-18.9-4-12.8-91.1-12.8-108.3.2-41.6-1.3-83.4-.5-125 .8-49.5 5.8-205.4-4.4-241.3-32.5-17-368.7-9-457.1-7-22.3.5-18.5-2.9-23.7 12.4"></path><path fill="#4f504a" d="M1759.6 902.3c-66.6 3.6-209.1-2.2-290.4-2.9-52.2-.4-42-1-68.7 27.2-54.1 57.6-121.2 100.3-170.2 163-16.7 21.4-50.6 41.3-71.7 70-31.4 42.4-285.7 263.8-331.1 331.6l8.8-11.8c14.2-2.6 25.9-22.2 36.3-30.1-5.3-17.8-7.5-12.2-20.2-20.6 0-23.3-2.8-15.8-6.3-28.7-7.5-27.8-3.3-60.1-8-91.7-9.4-64.8-3.2-373.7-15-391-17.7-25.9-122.6-12-144.4-8.3 1.4 40.6 2.3 1.4 12.5 32.9 9.3 28.6 3 80.8 3 111.7 11.5-9.3 12.2-10.9 15-26 .6-3 1.6-16.4 1.6-24l15.3 7c38.9 18.5 12.3 1.2 35.9 25.1 8.7 8.8 15.4 10.4 20.6 19.9 4.2 7.7 6.2 18.2 8.4 27.8 9.5 40.5 3.1 415 3.1 474.4 22-3 16.9-.6 30.4-15.4 62.7-68.8 136-124.6 197.3-194.3l250.5-249.4c21.2-19 96.1-86.2 105.2-103.4 13.8.8 9.4 4.2 25 8.3 8.8-13.8 29.7-25 48-28.2 27-4.7 308-3.7 341.2 4.2l15.8 7.9c22.8 10.8 53.8 10.9 78.5 14.8 23.6 3.8 31.1 8 50 18-9 4.8-11.8 14.4-19 22.6-7.9 9-15.8 14.4-23.8 22.2-37.2 36-66.9 80.7-103.6 117.2l-44 43.6c-47.5 48.8-95 100.7-145.7 146-21 18.6-38.1 27.3-57.8 50.4-27.7 32.5-94 94.6-127.7 134.9-29.8 35.6-116.3 114.5-131.2 135.6-19.4 27.6-30.3 15.5-26.5 52l-5 4.2c-7.2 5.9-16.3 10.4-20.4 19.4l-13.8 35.5c-.5-.7-1.5 2.8-2.5 4l-13.5-6.8c-26.2-14.3-27 10.1-46.2 22.1-28.2 17.8-32.3 31.6-55.6 52.7l-94.7 105.5c-9.3 11-6.7 27.6-16.3 44.6-9.7 17.2-10.4 33.7-8.6 57.5-17.9-6.1-10-5.7-23.8-15.2 7.5 14.2 19.4 22.2 30 34.9 8.4 10 7.5 6.6 15.8 17.6 34.9 46 74.5 79.3 111.9 121.6l79.4 87.6c2.6 3 4.9 5 8 7.8l17.1 16.5a816 816 0 0 1 92.9 99.7l91.8 98.8c27 32.4 34 21.9 107.6 21.9-13 16 1.6 5.1-16.3 11.8l-17 1.3c-99.2-.8-64.8 7.1-155.2-83L1066 2232c-42.9-42.2-80-98.7-130.2-132.3v-33.3l-3.3 9.3c-6.5 26 .2 19.1-13.9 29.3.4 0 13.6 3.7 14.4 4 12 5 52.4 45.8 62.2 56.4l8.5 7.6c7 5.5 4.6 1.1 14.1 11.6l227 239.5c5.3 5.6 6.8 8.1 11.3 13.6 14.1 17.1 27.7 20.1 34.9 41.6l6.6 16.5 2 1.5 13.6 7.5 2.6 2 70.6 79.8c22.1 22.9 55 16.8 94.5 18 73.1 2.2 304-6.8 359.1 3.5l6.5-25.7c7.9-5.7 11.8-9 22.2-10.9 19-3.3 10.8 5.6 17.2-.3-6.4 9.7-3.7-1.6-5.3 16.2-.2 2.4 1.6 15.3 1.8 16.5 78.7 9.8 149 1.5 220.2 1.2 22.3 0 53.5 6.7 69.2 5.5-7-9-32.1-25.6-56.2-53.5l-157.1-167.4a14534 14534 0 0 1-211.4-222.2L1340 1736.7c-7.2-11.8-6.7-11.2-1.8-22.6.8-.2 2.2-.8 2.5.1l9 1.4c12.9 2.3 4.6 3.3 22.6 3.5 13.6-20 364.3-372.6 414.1-423.3l366-367.4c16.8-17.2 44-38.4 52.7-60.3-64 13.4-87.5 51-142.2 104.1l-120.3 121.4c-39.3 41.8-79.8 80.3-120.6 121l-91.3 92.2c-11.9 12.2-17.3 24.7-37.5 27.2-5.7-26.7-10.3-20.2 32.3-61.7l249.7-254.4c27.8-30 101.1-86.5 90-109.3z"></path></svg></g></g><defs><clipPath id="SvgjsClipPath1394"><rect width="1000" height="1000" x="0" y="0" rx="200" ry="200"></rect></clipPath></defs></svg></g></svg>